# xmcd
#
# Track frame offsets:
#	150
#	14545
#	24592
#	32967
#	37710
#	44452
#	56955
#	67062
#	79850
#	96152
#	111027
#	123150
#	138315
#	162345
#
# Disc length: 2531 seconds
#
# Revision: 1
# Processed by: cddbd v1.5PL3 Copyright (c) Steve Scherf et al.
# Submitted via: audiograbber 1.82.02
#
DISCID=bc09e10e
DTITLE=Glen Campbell - Rhinestone Cowboy
DYEAR=1900
DGENRE=Country
TTITLE0=Rhinestone Cowboy
TTITLE1=Gentle On My Mind
TTITLE2=Wichita Linesman
TTITLE3=Glaveston
TTITLE4=Country Boy
TTITLE5=By The Time I Get To Phoenix
TTITLE6=Dreams Of The Everyday Housewife
TTITLE7=Heartache No. 3
TTITLE8=Please Come To Boston
TTITLE9=Trials and Tribulations
TTITLE10=It's Only Make Believe
TTITLE11=Crying
TTITLE12=Bluegrass Medley
TTITLE13=Milk Cow Blues
EXTD=
EXTT0=
EXTT1=
EXTT2=
EXTT3=
EXTT4=
EXTT5=
EXTT6=
EXTT7=
EXTT8=
EXTT9=
EXTT10=
EXTT11=
EXTT12=
EXTT13=
PLAYORDER=
